<svg xmlns="http://www.w3.org/2000/svg" viewBox="0 0 1190.79 285.2">
  <defs>
    <style>
      .cls-1{fill:#fafafa}
    </style>
  </defs>
  <g id="Layer_2" data-name="Layer 2">
    <g id="Layer_1-2" data-name="Layer 1">
      <path class="cls-1" d="M6.6 275.6q-6.6-6.39-6.6-18V24.4q0-11.59 6.6-18T24.8 0H104q69.2 0 107.4 37t38.2 103.8q0 67.2-38.2 104.2T104 282H24.8q-11.61 0-18.2-6.4zm94.2-35.6q97.2 0 97.2-99.2Q198 42 100.8 42H51.6v198zM442.6 101.8q19.8 20.2 19.8 61.4v97.6q0 10.8-6.4 17t-17.6 6.2q-10.41 0-17-6.4t-6.6-16.8V252a52.21 52.21 0 0 1-21.4 24.4q-14.61 8.79-33.8 8.8a78.5 78.5 0 0 1-35.6-8 63.21 63.21 0 0 1-25.2-22 55.52 55.52 0 0 1-9.2-31.2q0-21.6 11-34t35.8-18q24.8-5.59 68.4-5.6h10v-9.2q0-19.59-8.4-28.6t-27.2-9a86.53 86.53 0 0 0-23.6 3.4q-12 3.41-28.4 9.8-10.41 5.2-15.2 5.2a15 15 0 0 1-11.8-5.2q-4.6-5.19-4.6-13.6a20.47 20.47 0 0 1 3.4-11.8q3.39-5 11.4-9.4 14-7.59 33.4-12a172.47 172.47 0 0 1 38.2-4.4q40.8 0 60.6 20.2zm-40.4 134q12.6-13.4 12.6-34.6v-8.4h-7.2q-26.81 0-41.6 2.4t-21.2 8.4q-6.41 6-6.4 16.4 0 12.81 9 21t22.2 8.2q20 0 32.6-13.4zM634.8 265.2q0 9.6-7.8 14.6t-22.2 4.2l-10.8-.8q-67.2-4.8-67.2-72V124h-20q-10.8 0-16.6-4.8t-5.8-14q0-9.2 5.8-14t16.6-4.8h20V49.6q0-10.8 6.8-17.2T552 26q11.19 0 18 6.4t6.8 17.2v36.8h34q10.8 0 16.6 4.8t5.8 14q0 9.21-5.8 14t-16.6 4.8h-34v90.8q0 29.61 27.2 31.6l10.8.8q20 1.2 20 18zM833.59 88.8q6.79 6.4 6.8 17.2v155.2q0 10.41-7 16.8t-18.2 6.4q-10.8 0-17.2-6t-6.4-16.4v-10a63.72 63.72 0 0 1-24.8 24.6q-15.6 8.59-35.2 8.6-72 0-72-80.8V106q0-10.8 6.8-17.2t18-6.4q11.6 0 18.4 6.4t6.8 17.2v98.8q0 20.8 8.4 30.8t26.4 10q20.8 0 33.4-13.8t12.6-36.6V106q0-10.8 6.8-17.2t18-6.4q11.59 0 18.4 6.4zM1173.79 100.6q17 19 17 61.4v98.4q0 11.61-7 17.8t-18.2 6.2q-10.8 0-17.8-6.2t-7-17.8V162q0-22-7.8-31.4t-23.8-9.4q-19.61 0-31.2 13.4t-11.6 36.6v89.2q0 11.61-7 17.8t-17.8 6.2q-10.8 0-18-6.2t-7.2-17.8V162q0-22-7.8-31.4t-23.8-9.4q-19.6 0-31 13.4t-11.4 36.6v89.2q0 11.61-7.2 17.8t-18 6.2q-10.8 0-17.8-6.2t-7-17.8V105.6q0-11.19 7.2-17.2t18-6q10.39 0 17 5.8t6.6 16.6v9.6a62.7 62.7 0 0 1 24.6-24.4q15.39-8.4 35.4-8.4 44 0 58.8 36.8a66.06 66.06 0 0 1 26-26.8q17.19-10 38.8-10 31.99 0 49 19z"/>
      <circle class="cls-1" cx="112.73" cy="142.26" r="35"/>
    </g>
  </g>
</svg>
